<svg xmlns="http://www.w3.org/2000/svg" fill="none" viewBox="0 0 424 1424">
  <path fill="#154273" d="M279.908 257.702s-.855-5.712-5.124-25.087c-1.751-7.947-29.93-13.365-62.158-13.365-32.23 0-60.407 5.418-62.159 13.365-4.269 19.375-5.124 25.087-5.124 25.087h134.565Zm29.575-185.746c-4.305-13.121-14.828-25.322-24.389-27.171.725-8.633-7.355-18.281-13.859-24.3-33.451-30.955-100.24-27.467-134.853 14.833a114.002 114.002 0 0 0-24.915 58.23 113.98 113.98 0 0 0 10.011 62.538c5.205 10.004 11.111 21.674 16.162 31.742a43.508 43.508 0 0 0 16.055 17.517 43.543 43.543 0 0 0 22.868 6.476h72.65a43.543 43.543 0 0 0 22.868-6.476 43.508 43.508 0 0 0 16.055-17.517c5.051-10.068 10.957-21.738 16.161-31.742a113.962 113.962 0 0 0 5.186-84.13Z"/>
  <path fill="#B18077" d="M174.143 175.761v103.954a38.453 38.453 0 0 0 11.271 27.198 38.491 38.491 0 0 0 62.763-12.479 38.443 38.443 0 0 0 2.93-14.719V175.761a38.465 38.465 0 0 0-23.756-35.534 38.5 38.5 0 0 0-41.937 8.337 38.46 38.46 0 0 0-11.271 27.197Z"/>
  <path fill="#507196" d="m424 736.982-6.718-168.412a796.264 796.264 0 0 0-4.284-56.595l-11.154-99.858s-11.381-51.06-16.682-72.499c-5.302-21.439-32.812-49.191-48.676-57.426l-58.442-30.338-6.122-2.278-3.276-15.78c-4.059 8.786-26.374 17.114-56.36 17.143-29.987-.029-52.301-8.357-56.361-17.143l-3.276 15.78-6.122 2.278s-50.16 24.587-67.044 33.745a82.925 82.925 0 0 0-25.485 22.533 82.875 82.875 0 0 0-14.29 30.864l-16.98 73.121-11.154 99.858A795.496 795.496 0 0 0 7.29 568.57L.57 736.982l61.88 2.139 3.218-40.491h293.233l3.217 40.491L424 736.982Z"/>
  <path fill="#9F6E67" d="M251.107 231.75v-24.868h-76.712a182.177 182.177 0 0 0 16.142 23.976 40.758 40.758 0 0 0 26.36 12.363 49.328 49.328 0 0 0 34.21-8.95v-2.521Z"/>
  <path fill="#B18077" d="M212.889 24.53a73.462 73.462 0 0 0-30.345 6.56 73.423 73.423 0 0 0-24.92 18.508 73.363 73.363 0 0 0-17.515 58.077l8.076 60.229a67.327 67.327 0 0 0 21.191 40.641l15.965 14.665a40.727 40.727 0 0 0 55.095 0l15.966-14.665a67.331 67.331 0 0 0 21.19-40.641l5.095-37.994 2.981-22.235a73.368 73.368 0 0 0-17.516-58.077 73.43 73.43 0 0 0-55.263-25.067Z"/>
  <path fill="#154273" d="M212.89 15.435c-58.132 0-82.841 53.81-80.344 80.993 2.497 27.182 9.261 38.936 10.482 35.856a218.708 218.708 0 0 0 68.52-19.112c33.685-16.048 47.368-28.093 55.63-40.96 3.164 29.069 18.489 35.463 15.508 57.699-.827 6.163 7.76-.199 9.426-32.928 1.665-32.73-21.091-81.547-79.222-81.547Z"/>
  <path fill="#B18077" d="M276.946 170.354a12.505 12.505 0 0 0 11.611-3.634 49.873 49.873 0 0 0 10.095-32.559 10.797 10.797 0 0 0-5.291-8.536 10.814 10.814 0 0 0-10.035-.495c-7.704 4.013-12.886 23.168-12.886 23.168l6.506 22.056Z"/>
</svg>
