<svg width="48" height="96" viewBox="0 0 48 96" fill="none" xmlns="http://www.w3.org/2000/svg">
<path d="M48 0H0V96H48V0Z" fill="#154273"/>
<path d="M24.8642 74.2657H24.029V71.9521H24.8642V74.2657ZM28.637 64.0513H27.8018V61.7377H28.637V64.0513ZM13.1618 60.0577C13.0946 60.0577 12.6626 60.0577 12.6626 60.1441C12.6626 60.2305 12.8642 60.1921 13.1618 60.2401C13.8338 60.3553 14.093 60.6913 14.5634 60.6913C14.9858 60.6913 15.4274 60.4033 15.2546 59.7889C15.2258 59.6833 15.1682 59.7121 15.149 59.7793C15.0818 60.0577 14.7458 60.2113 14.3906 60.2113C13.949 60.2113 13.8626 60.0577 13.1618 60.0577ZM8.56344 62.3713C8.64024 62.4769 9.42744 63.4945 8.21784 63.8881C8.16024 63.9073 8.15064 63.9553 8.22744 63.9937C9.12024 64.3681 9.55224 63.6769 9.55224 63.6769C10.0034 64.7137 9.31224 65.2801 9.31224 65.2801C9.40824 65.4625 9.84024 65.7793 10.4834 65.9233C10.733 65.7889 11.0786 65.5393 11.2226 65.1553C11.2226 65.1553 11.3954 65.6065 11.2418 66.0385C13.0658 66.2017 13.709 64.7425 15.1202 65.0113C15.1586 65.0209 15.1778 64.9921 15.1778 64.9537C15.1778 64.0513 14.6306 62.4097 12.8834 62.0737C11.1458 61.7377 11.6162 61.0273 11.6162 61.0273C12.3458 60.9985 12.7682 61.3153 12.7682 61.3153C12.9026 61.0945 12.7106 60.8641 12.7106 60.8641C12.7778 60.7777 12.8162 60.4801 12.8162 60.4801C11.9906 60.4801 11.7794 60.2977 11.7794 60.2977C11.6546 59.8081 11.9906 59.1169 13.2194 59.8561C13.5266 59.5873 13.4978 59.1649 13.4978 59.1649C13.5938 59.1169 13.6514 58.9729 13.6514 58.9153C13.6514 58.7137 12.6722 58.1665 12.4226 58.0993C12.365 57.8017 11.981 57.3793 10.829 57.5329C10.2818 57.6001 9.88824 57.4561 10.0706 57.1393C10.0994 57.0817 10.0034 57.0721 9.95544 57.1297C9.83064 57.2545 9.65784 57.6097 10.1282 57.8497C10.6562 58.1185 10.685 58.6465 10.6946 58.7233C10.7042 58.8385 10.5698 58.8481 10.541 58.7329C10.301 57.8401 9.07224 57.6481 8.35224 58.1185C8.39064 58.5985 8.90904 58.9153 9.18744 58.9153C9.35064 58.9153 9.57144 58.7521 9.57144 58.5313C9.57144 58.4257 9.62904 58.4353 9.65784 58.5217C9.77304 58.8385 9.30264 59.5009 8.61144 59.0977C7.90104 59.8081 8.18904 60.6913 8.25624 61.0081C8.38104 61.5841 8.10264 62.1505 7.57464 61.8913C7.54584 61.8817 7.51704 61.8721 7.51704 61.9297C7.52664 62.2753 7.99704 62.6881 8.56344 62.3713ZM12.4802 58.7905C12.1442 59.1649 11.6066 59.0785 11.4722 58.4641C12.1634 58.4257 12.4514 58.4929 12.4802 58.7905ZM33.6674 60.2113C33.3122 60.2113 32.9762 60.0577 32.909 59.7793C32.8898 59.7121 32.8322 59.6833 32.8034 59.7889C32.6306 60.4033 33.0722 60.6913 33.4946 60.6913C33.965 60.6913 34.2242 60.3553 34.8962 60.2401C35.1938 60.1921 35.3954 60.2401 35.3954 60.1441C35.3954 60.0577 34.9634 60.0577 34.8962 60.0577C34.205 60.0577 34.109 60.2113 33.6674 60.2113ZM40.541 61.9105C40.541 61.8529 40.5122 61.8625 40.4834 61.8721C39.9554 62.1313 39.677 61.5745 39.8018 60.9889C39.869 60.6625 40.157 59.7889 39.4466 59.0785C38.7458 59.4817 38.2754 58.8193 38.4002 58.5025C38.429 58.4161 38.4866 58.4065 38.4866 58.5121C38.4866 58.7329 38.7074 58.8961 38.8706 58.8961C39.149 58.8961 39.6674 58.5793 39.7058 58.0993C38.9858 57.6289 37.757 57.8209 37.517 58.7137C37.4882 58.8289 37.3538 58.8193 37.3634 58.7041C37.3634 58.6273 37.4018 58.0993 37.9298 57.8305C38.4098 57.5905 38.237 57.2353 38.1026 57.1105C38.0546 57.0625 37.949 57.0721 37.9874 57.1201C38.1698 57.4369 37.7762 57.5809 37.2386 57.5137C36.0866 57.3601 35.7122 57.7921 35.645 58.0801C35.3954 58.1473 34.4162 58.6945 34.4162 58.8961C34.4162 58.9537 34.4738 59.1073 34.5698 59.1457C34.5698 59.1457 34.5506 59.5585 34.8482 59.8369C36.0674 59.0977 36.413 59.7889 36.2882 60.2785C36.2882 60.2785 36.0674 60.4513 35.2418 60.4609C35.2418 60.4609 35.2802 60.7585 35.3474 60.8449C35.3474 60.8449 35.1554 61.0849 35.2898 61.2961C35.2898 61.2961 35.7122 60.9793 36.4418 61.0081C36.4418 61.0081 36.9122 61.7185 35.1746 62.0545C33.437 62.3905 32.8802 64.0321 32.8802 64.9345C32.8802 64.9825 32.8994 65.0017 32.9378 64.9921C34.349 64.7329 34.9922 66.1921 36.8162 66.0193C36.653 65.5873 36.8354 65.1361 36.8354 65.1361C36.9794 65.5201 37.325 65.7793 37.5746 65.9041C38.2274 65.7601 38.6498 65.4529 38.7458 65.2609C38.7458 65.2609 38.0546 64.6945 38.5058 63.6577C38.5058 63.6577 38.9378 64.3489 39.8306 63.9745C39.9074 63.9361 39.8882 63.8881 39.8402 63.8689C38.6306 63.4753 39.4178 62.4577 39.4946 62.3521C40.061 62.6881 40.541 62.2753 40.541 61.9105ZM36.5858 58.4641C36.4514 59.0785 35.9138 59.1649 35.5778 58.7905C35.6066 58.4929 35.9042 58.4257 36.5858 58.4641ZM23.7122 48.2017C23.7122 48.3553 23.7794 48.4897 23.8274 48.5665C23.933 48.7201 23.9138 48.8065 23.8658 48.8545C23.8178 48.9025 23.7314 48.9217 23.5778 48.8161C23.501 48.7585 23.3666 48.7009 23.213 48.7009C22.9538 48.7009 22.8194 48.8737 22.8194 49.0177C22.8194 49.1617 22.9538 49.3345 23.213 49.3345C23.3666 49.3345 23.501 49.2673 23.5778 49.2193C23.7314 49.1137 23.8178 49.1329 23.8658 49.1809C23.9138 49.2289 23.8466 49.7569 23.7794 50.1793C23.3474 50.2753 23.1362 50.6209 23.1362 50.8225C23.1362 51.3505 23.693 51.6481 24.029 51.8305C24.3554 51.6577 24.9218 51.3505 24.9218 50.8225C24.9218 50.6209 24.7106 50.2657 24.2786 50.1793C24.221 49.7665 24.1442 49.2289 24.1922 49.1809C24.2402 49.1329 24.3266 49.1137 24.4802 49.2193C24.557 49.2769 24.6914 49.3345 24.845 49.3345C25.1042 49.3345 25.2386 49.1617 25.2386 49.0177C25.2386 48.8737 25.1042 48.7009 24.845 48.7009C24.6914 48.7009 24.557 48.7681 24.4802 48.8161C24.3266 48.9217 24.2402 48.9025 24.1922 48.8545C24.1442 48.8065 24.125 48.7201 24.2306 48.5665C24.2882 48.4897 24.3458 48.3553 24.3458 48.2017C24.3458 47.9425 24.173 47.8081 24.029 47.8081C23.885 47.8081 23.7122 47.9425 23.7122 48.2017ZM24.029 52.0993C23.6738 52.0993 23.3858 52.3873 23.3858 52.7425C23.3858 53.0977 23.6738 53.3857 24.029 53.3857C24.3842 53.3857 24.6722 53.0977 24.6722 52.7425C24.6722 52.3873 24.3842 52.0993 24.029 52.0993ZM24.029 58.2529C26.5922 58.2529 28.0322 58.7425 28.0322 58.7425C28.0418 57.4465 28.0418 56.7265 28.781 56.8321C28.3778 55.7473 30.125 55.3153 30.125 53.9041C30.125 52.9729 29.4626 52.8673 29.2706 52.8673C28.6946 52.8673 28.781 53.2417 28.2914 53.2417C28.2338 53.2417 28.1666 53.2225 28.1666 53.2705C28.1666 53.4337 28.301 53.7121 28.5314 53.7121C28.8386 53.7121 28.8386 53.4049 29.069 53.4049C29.165 53.4049 29.309 53.4817 29.309 53.7985C29.309 54.4033 28.9154 55.0657 28.445 55.5841C28.3394 55.4401 28.1954 55.3441 28.013 55.3441C27.7346 55.3441 27.4946 55.6321 27.4946 55.9873C27.4946 56.1217 27.5138 56.2177 27.5618 56.3233C27.4082 56.4097 27.2642 56.4577 27.1682 56.4577C26.957 56.4577 26.6402 56.3713 26.6402 55.9105C26.6402 54.8833 28.013 53.9809 28.013 52.6753C28.013 52.0513 27.6002 51.4369 26.7266 51.4369C25.7954 51.4369 25.9682 52.2817 25.1618 52.2817C25.1234 52.2817 25.0946 52.2913 25.0946 52.3297C25.0946 52.3873 25.2386 52.8577 25.6514 52.8577C26.093 52.8577 26.2178 52.0897 26.621 52.0897C26.765 52.0897 26.9858 52.1761 26.9858 52.6945C26.9858 53.0977 26.7842 53.7601 26.4962 54.3841C26.3906 54.2785 26.2466 54.2017 26.093 54.2017C25.7474 54.2017 25.4978 54.5377 25.4978 54.9313C25.4978 55.1809 25.5938 55.4305 25.7666 55.5841C25.565 55.8433 25.3538 56.0545 25.0754 56.0545C24.5186 56.0545 24.2786 55.7377 24.2786 55.3921C24.2786 55.0177 24.9602 54.8833 24.9602 54.3073C24.9602 53.9137 24.701 53.6929 24.461 53.6929C24.1922 53.6929 24.0578 53.8657 24.029 53.8657C24.0002 53.8657 23.8658 53.6929 23.597 53.6929C23.3474 53.6929 23.0978 53.9137 23.0978 54.3073C23.0978 54.8833 23.7794 55.0273 23.7794 55.3921C23.7794 55.7377 23.5298 56.0545 22.9826 56.0545C22.7042 56.0545 22.493 55.8433 22.2914 55.5841C22.4642 55.4209 22.5602 55.1809 22.5602 54.9313C22.5602 54.5281 22.3106 54.2017 21.965 54.2017C21.8018 54.2017 21.6674 54.2785 21.5618 54.3841C21.2738 53.7505 21.0722 53.0977 21.0722 52.6945C21.0722 52.1761 21.293 52.0897 21.437 52.0897C21.8306 52.0897 21.9554 52.8577 22.4066 52.8577C22.8194 52.8577 22.9634 52.3873 22.9634 52.3297C22.9634 52.3009 22.9346 52.2817 22.8962 52.2817C22.0898 52.2817 22.2626 51.4369 21.3314 51.4369C20.4674 51.4369 20.045 52.0513 20.045 52.6753C20.045 53.9809 21.4178 54.8833 21.4178 55.9105C21.4178 56.3713 21.101 56.4577 20.8898 56.4577C20.7842 56.4577 20.6498 56.4097 20.4962 56.3233C20.5442 56.2081 20.5634 56.1217 20.5634 55.9873C20.5634 55.6321 20.3234 55.3441 20.045 55.3441C19.8722 55.3441 19.7282 55.4401 19.6226 55.5841C19.1522 55.0657 18.7586 54.4033 18.7586 53.7985C18.7586 53.4913 18.9026 53.4049 18.9986 53.4049C19.2194 53.4049 19.229 53.7121 19.5362 53.7121C19.7666 53.7121 19.901 53.4337 19.901 53.2705C19.901 53.2225 19.8338 53.2417 19.7762 53.2417C19.2866 53.2417 19.373 52.8673 18.797 52.8673C18.605 52.8673 17.9426 52.9729 17.9426 53.9041C17.9426 55.3249 19.6898 55.7473 19.2866 56.8321C20.0258 56.7265 20.0162 57.4465 20.0354 58.7425C20.0258 58.7425 21.4658 58.2529 24.029 58.2529ZM19.3346 60.1633C18.6338 60.3169 18.1346 60.4609 17.9138 60.5281C17.9234 60.2209 18.0386 59.9329 18.317 59.8753C18.3554 59.8657 18.365 59.8177 18.3266 59.7985C17.7026 59.3857 17.3762 60.1729 17.3666 60.2017C17.1458 60.1825 16.8098 60.2497 16.8098 60.5473C16.8098 61.4401 14.7746 61.9297 14.3042 62.0065C15.1394 62.3233 15.485 63.3793 15.485 63.3793C16.0898 62.7745 16.7906 62.2465 16.9538 62.2465C17.117 62.2465 17.1746 62.4481 17.1842 62.5633C17.1842 62.6017 17.2226 62.6113 17.2514 62.5825C17.5682 62.1121 17.4146 62.0065 17.3858 61.8625C17.3666 61.7569 17.3954 61.3441 17.8562 61.3921V67.3345L17.6162 67.3825C17.5106 67.4017 16.637 66.6625 15.6482 65.9713C14.6498 65.2801 14.1218 65.6929 12.989 66.3073C11.501 67.1137 10.0034 66.3841 10.0034 66.3841C8.72664 67.2961 8.28504 69.9457 8.28504 69.9457C8.02584 70.0513 7.60344 70.1665 7.20984 70.1665C6.23064 70.1665 6.05784 69.5713 6.05784 69.2257C6.05784 67.7185 7.94904 67.0753 7.94904 65.5873C7.94904 65.2225 7.78584 63.7633 5.97144 63.7633C5.74104 63.7633 4.35864 63.7633 4.34904 63.7633C3.66744 63.7633 3.50424 63.2737 3.40824 63.0913C3.36984 63.0145 3.30264 63.0625 3.33144 63.1201C3.37944 63.2449 3.25464 63.4369 3.25464 63.8113C3.25464 64.4161 3.60984 64.7809 4.27224 64.7809C4.56984 64.7809 4.85784 64.6945 4.94424 64.6369C5.00184 64.5985 5.04024 64.6561 5.01144 64.6945C4.72344 65.0305 4.70424 65.6641 4.81944 65.8081C4.84824 65.8465 4.88664 65.8369 4.88664 65.8081C5.04984 65.1745 5.64504 64.5697 6.45144 64.5697C7.44024 64.5697 7.43064 65.4049 7.43064 65.6065C7.43064 66.8161 5.30904 67.6993 5.30904 69.3697C5.30904 71.0593 7.09464 71.4145 8.12184 71.1553C8.06424 72.8449 6.12504 73.4209 6.06744 72.2113C6.06744 72.1537 6.01944 72.1441 5.99064 72.2209C5.75064 72.8161 5.84664 73.3441 6.59544 73.5073C6.64344 73.5169 6.62424 73.5457 6.57624 73.5841C5.82744 74.0545 6.23064 75.9169 6.26904 76.4641C6.32664 77.2513 5.53944 77.1553 5.47224 77.1361C5.44344 77.1265 5.40504 77.1361 5.46264 77.2033C6.01944 77.8849 6.71064 77.2609 6.71064 77.2609C7.22904 77.4241 6.91224 77.8657 6.55704 78.0961C6.49944 78.1345 6.50904 78.1729 6.56664 78.1729C6.64344 78.1825 7.44984 78.2497 7.59384 77.6065C7.94904 78.0289 8.47704 77.8753 8.58264 77.8177C8.73624 77.7409 9.49464 77.4625 9.56184 78.3073C9.56184 78.3649 9.60024 78.3265 9.62904 78.2977C10.1954 77.5777 9.59064 77.1361 9.24504 77.0881C9.27384 77.0497 9.72504 76.6657 10.1378 77.1937C10.1666 77.2321 10.1954 77.2417 10.1954 77.1649C10.2434 76.2529 9.50424 76.1761 9.02424 76.5697C9.00504 76.4737 8.84184 75.9649 9.56184 75.9841C9.58104 75.9841 9.60984 75.9553 9.58104 75.9265C9.02424 75.3313 8.56344 75.8689 8.44824 76.0033C8.19864 76.3009 7.57464 76.1761 7.51704 76.1761C7.70904 73.0177 10.493 74.1409 10.877 72.6049C10.8962 72.5281 10.9346 72.5569 10.9346 72.5857C11.0402 72.9601 11.981 73.0081 12.1538 72.2785C12.1634 72.2305 12.1538 72.2017 12.125 72.2305C11.3186 73.0369 9.50424 70.5217 11.981 68.4769C14.093 66.7393 15.9842 67.7089 16.7042 68.2753C16.7426 68.5249 16.589 68.6113 16.493 68.6401C16.4546 68.6497 16.445 68.6785 16.5026 68.7073C16.7042 68.7841 16.9826 68.7553 17.117 68.5729C17.5682 68.8897 17.1842 69.2929 17.0018 69.3985C16.9538 69.4273 16.973 69.4561 17.0114 69.4657C17.4242 69.5425 17.7698 69.1201 17.789 68.8705L17.8562 68.9089V70.7041C17.8562 73.2577 20.8034 73.6129 24.0386 75.7729C27.2738 73.6033 30.2114 73.2577 30.2114 70.7041V68.9089L30.2786 68.8705C30.2978 69.1105 30.6338 69.5425 31.0562 69.4657C31.0946 69.4561 31.1138 69.4273 31.0658 69.3985C30.8834 69.2833 30.4898 68.8897 30.9506 68.5729C31.085 68.7649 31.3634 68.7841 31.565 68.7073C31.6226 68.6881 31.613 68.6497 31.5746 68.6401C31.4786 68.6113 31.325 68.5249 31.3634 68.2753C32.0834 67.6993 33.9746 66.7297 36.0866 68.4769C38.5634 70.5217 36.749 73.0273 35.9426 72.2305C35.9042 72.1921 35.9042 72.2305 35.9138 72.2785C36.0866 73.0177 37.0274 72.9601 37.133 72.5857C37.1426 72.5569 37.181 72.5281 37.1906 72.6049C37.5746 74.1409 40.349 73.0177 40.5506 76.1761C40.493 76.1857 39.869 76.3009 39.6194 76.0033C39.5138 75.8785 39.053 75.3313 38.4866 75.9265C38.4482 75.9649 38.4866 75.9841 38.5058 75.9841C39.2258 75.9649 39.0722 76.4737 39.0434 76.5697C38.5634 76.1761 37.8242 76.2529 37.8722 77.1649C37.8722 77.2321 37.901 77.2321 37.9298 77.1937C38.3426 76.6657 38.7938 77.0497 38.8226 77.0881C38.4866 77.1361 37.8722 77.5777 38.4386 78.2977C38.4674 78.3265 38.4962 78.3649 38.5058 78.3073C38.5826 77.4625 39.3314 77.7313 39.485 77.8177C39.5906 77.8753 40.1186 78.0289 40.4738 77.6065C40.6178 78.2497 41.4242 78.1825 41.501 78.1729C41.5586 78.1729 41.5586 78.1345 41.5106 78.0961C41.165 77.8657 40.8386 77.4241 41.357 77.2609C41.357 77.2609 42.0482 77.8849 42.605 77.2033C42.653 77.1457 42.6242 77.1265 42.5954 77.1361C42.5282 77.1553 41.741 77.2513 41.7986 76.4641C41.837 75.9169 42.2402 74.0545 41.4914 73.5841C41.4434 73.5553 41.4242 73.5265 41.4722 73.5073C42.221 73.3441 42.317 72.8161 42.077 72.2209C42.0482 72.1441 42.0002 72.1633 42.0002 72.2113C41.9426 73.4209 40.013 72.8449 39.9458 71.1553C40.9826 71.4241 42.7586 71.0593 42.7586 69.3697C42.7586 67.7089 40.637 66.8161 40.637 65.6065C40.637 65.4049 40.6274 64.5697 41.6162 64.5697C42.4226 64.5697 43.0178 65.1745 43.181 65.8081C43.1906 65.8369 43.2194 65.8465 43.2482 65.8081C43.3634 65.6545 43.3442 65.0305 43.0562 64.6945C43.0274 64.6657 43.0562 64.5985 43.1234 64.6369C43.2098 64.6945 43.4978 64.7809 43.7954 64.7809C44.4578 64.7809 44.813 64.4161 44.813 63.8113C44.813 63.4369 44.6786 63.2449 44.7362 63.1201C44.765 63.0625 44.6882 63.0241 44.6594 63.0913C44.5634 63.2833 44.3906 63.7633 43.7186 63.7633C43.709 63.7633 42.3266 63.7633 42.0962 63.7633C40.2818 63.7633 40.1186 65.2321 40.1186 65.5873C40.1186 67.0753 42.0098 67.7185 42.0098 69.2257C42.0098 69.5809 41.8274 70.1665 40.8578 70.1665C40.4546 70.1665 40.0322 70.0513 39.7826 69.9457C39.7826 69.9457 39.3506 67.3057 38.0642 66.3841C38.0642 66.3841 36.5666 67.1137 35.0786 66.3073C33.9458 65.6929 33.4082 65.2801 32.4098 65.9713C31.4114 66.6625 30.5474 67.4017 30.4418 67.3825L30.2018 67.3345V61.3921C30.6626 61.3441 30.6914 61.7569 30.6722 61.8625C30.6434 61.9969 30.4994 62.1121 30.8066 62.5825C30.8354 62.6209 30.8642 62.6017 30.8738 62.5633C30.8834 62.4481 30.9506 62.2465 31.1042 62.2465C31.2578 62.2465 31.9682 62.7745 32.573 63.3793C32.573 63.3793 32.9186 62.3329 33.7538 62.0065C33.2834 61.9297 31.2482 61.4401 31.2482 60.5473C31.2482 60.2497 30.9122 60.1825 30.6914 60.2017C30.6818 60.1729 30.3458 59.3857 29.7314 59.7985C29.7026 59.8177 29.7026 59.8657 29.741 59.8753C30.0194 59.9425 30.1346 60.2209 30.1442 60.5281C29.549 60.3457 27.0242 59.6353 24.029 59.6353C22.5698 59.6353 21.2354 59.8081 20.1698 60.0001V62.0545H19.3346V60.1633ZM13.805 81.2641C13.5842 81.1777 13.4402 81.0337 13.4402 80.7361V79.4593C13.0754 79.3345 12.077 78.9505 10.0706 78.9505C8.40984 78.9505 7.89144 79.3249 7.86264 79.4593L7.42104 81.8881C7.42104 81.8881 8.09304 81.2737 10.5026 81.4273C13.4018 81.6097 16.4066 83.3281 16.4066 81.4945V80.4193C14.141 80.4289 13.805 81.1585 13.805 81.2641ZM31.6514 80.4289V81.5041C31.6514 83.3281 34.6562 81.6193 37.5554 81.4369C39.965 81.2833 40.637 81.8977 40.637 81.8977L40.1954 79.4593C40.1762 79.3249 39.6482 78.9505 37.9874 78.9505C35.9906 78.9505 34.9922 79.3345 34.6178 79.4593V80.7361C34.6178 81.0241 34.4738 81.1681 34.253 81.2641C34.2626 81.1585 33.9266 80.4289 31.6514 80.4289ZM24.029 79.3249C28.7042 79.3249 33.4466 79.5649 34.061 80.2753C34.109 80.3329 34.1282 80.2753 34.1282 80.2273V77.7505C34.1282 77.0305 29.2322 76.6081 24.0194 76.6081C18.8066 76.6081 13.9106 77.0305 13.9106 77.7505V80.2273C13.9106 80.2657 13.9298 80.3233 13.9778 80.2753C14.621 79.5745 19.3634 79.3249 24.029 79.3249ZM19.8626 67.6513L19.3922 67.5265L19.3538 67.5841L18.8066 67.3441C18.8066 67.3441 19.2098 67.3441 19.2962 67.3441C19.3442 67.3441 19.3442 67.3153 19.325 67.2961C19.1042 67.0753 18.9026 66.8833 18.9026 66.8833C18.9026 66.8833 19.1234 66.9697 19.4402 67.0849C19.4786 67.0945 19.4882 67.0753 19.469 67.0465C19.3154 66.8257 19.1042 66.5185 19.1042 66.5185C19.1042 66.5185 19.5458 66.8161 19.6322 66.8737C19.661 66.8929 19.6802 66.8737 19.6706 66.8449C19.5554 66.5569 19.421 66.2209 19.421 66.2209L19.901 66.6817C19.9202 66.7009 19.949 66.6913 19.9394 66.6625C19.8914 66.4417 19.805 66.0385 19.805 66.0385L20.1602 66.5569C20.1794 66.5857 20.2082 66.5761 20.2082 66.5473C20.2082 66.4417 20.2178 65.9809 20.2178 65.9809C20.2178 65.9809 20.3714 66.3265 20.4386 66.4993C20.4578 66.5377 20.477 66.5377 20.4962 66.4897C20.5154 66.4321 20.6786 66.0481 20.6786 66.0481L20.6978 66.6433L20.621 66.6625L20.525 67.3729C21.2258 67.2097 22.109 66.0001 22.781 66.0001C23.5874 66.0001 23.8754 66.9409 25.3538 66.4609C25.7282 67.0177 25.8626 67.4977 26.0066 68.1601C26.5826 68.6977 27.3794 68.5153 27.3794 67.9489C27.3794 67.1809 26.5442 67.0369 26.5442 66.2305C26.5442 65.8753 26.7938 65.3569 27.4754 65.3569C27.8402 65.3569 28.3682 65.5105 28.6754 65.5105C29.0402 65.5105 29.117 65.2513 29.1554 65.1361C29.1842 65.0593 29.2898 65.0785 29.2802 65.1457C29.2706 65.2225 29.3186 65.3281 29.3186 65.5009C29.3186 66.0097 28.5794 66.0769 28.493 66.0097C28.4546 65.9809 28.4258 66.0193 28.4546 66.0481C28.5698 66.1345 28.541 66.4417 28.4066 66.6337C28.3874 66.6529 28.3682 66.6529 28.3682 66.6337C28.2914 66.2689 27.8594 65.8177 27.485 65.8177C27.3506 65.8177 27.0722 65.8945 27.0722 66.2209C27.0722 66.6721 27.9842 67.0945 27.9842 68.0353C27.9842 69.0145 27.0146 69.2545 26.0354 69.0049C26.0642 69.9361 27.4562 70.4833 27.485 69.8209C27.485 69.7729 27.5138 69.8017 27.5234 69.8209C27.725 70.1089 27.6386 70.3201 27.3698 70.4353C27.6098 70.5409 27.6578 71.0305 27.725 71.3281C27.8306 71.7697 28.2914 71.5201 28.3202 71.5105C28.349 71.4913 28.3586 71.5105 28.3394 71.5393C28.1666 71.9905 27.6962 71.8177 27.6962 71.8177C27.4562 71.9905 27.7442 72.1441 27.965 72.2113C27.9938 72.2209 27.9938 72.2401 27.9746 72.2593C27.8114 72.3169 27.4658 72.4321 27.293 72.1345C27.1682 72.4417 26.909 72.4321 26.813 72.4321C26.6306 72.4321 26.5154 72.6145 26.5538 72.8641C26.5538 72.8833 26.5442 72.8929 26.525 72.8833C26.1026 72.6049 26.3426 72.2689 26.5154 72.1825C26.4866 72.1633 26.189 72.0385 26.0642 72.3841C26.0546 72.4129 26.0354 72.4129 26.0258 72.3841C25.8434 71.8849 26.2466 71.7409 26.5346 71.8657C26.5154 71.7985 26.3618 71.5489 25.9778 71.6353C25.9586 71.6449 25.949 71.6353 25.9586 71.6065C26.0258 71.4529 26.2082 71.2321 26.5634 71.4529C26.7458 71.5681 27.053 71.4049 27.0818 71.3857C26.4578 70.1473 25.2578 71.1841 24.9794 70.2145C24.9698 70.1953 24.9506 70.1761 24.9314 70.2337C24.8642 70.4353 24.3362 70.4545 24.2402 70.0513C24.2306 70.0225 24.2402 70.0129 24.269 70.0321C24.3458 70.1089 24.509 70.1761 24.7298 69.8689C24.8738 69.6577 24.893 69.3793 24.893 69.1969C24.893 68.4481 24.1442 67.1809 22.973 67.1809C22.2338 67.1809 21.437 67.4689 20.8418 67.9009L21.389 68.0257C21.341 68.5825 20.8034 68.9089 20.3138 68.7649L20.4002 68.1313C20.3138 68.1601 20.1026 68.2369 19.9874 68.4001C19.9778 68.4097 19.9586 68.4097 19.9586 68.3905C19.8626 68.0257 20.1602 67.8433 20.2466 67.8049C20.2562 67.7953 20.2562 67.7953 20.237 67.7953C19.9682 67.7857 19.8242 67.9777 19.7762 68.0449C19.7666 68.0545 19.757 68.0545 19.757 68.0449C19.7858 67.9681 19.7378 67.7857 19.8626 67.6513ZM21.5042 71.9521C21.293 72.2113 21.1106 71.9617 20.8322 71.9617C20.573 71.9617 20.525 72.1825 20.525 72.2689C20.525 72.2881 20.5154 72.2881 20.5058 72.2785C20.2082 71.8753 20.5442 71.6545 20.7362 71.6257C20.7074 71.5969 20.4194 71.4049 20.237 71.6737C20.2274 71.6929 20.2082 71.6833 20.2082 71.6641C20.1986 71.1649 20.5922 71.1265 20.861 71.3473C20.909 71.1553 20.7842 71.0305 20.573 71.0209C20.5442 71.0209 20.5442 71.0017 20.5538 70.9921C20.6402 70.8961 20.7266 70.8577 20.813 70.8577C21.0914 70.8577 21.1298 71.2129 21.3122 71.2129C21.581 71.2129 21.9746 70.8481 22.0034 70.8097C21.9938 70.7905 21.7346 70.0801 21.7826 69.6577C21.7826 69.6385 21.773 69.6385 21.7634 69.6481C21.629 69.7249 21.3026 69.7153 21.3026 69.3121C21.3026 69.2833 21.3122 69.2737 21.3314 69.3025C21.4754 69.5041 21.7154 69.2737 21.8306 69.1393C21.9554 68.9953 22.6466 67.9969 23.5586 67.9969C23.7602 67.9969 24.0194 68.1121 24.2306 68.2561C23.9138 68.6401 24.2306 69.0049 24.461 68.9569C24.4898 68.9473 24.4898 68.9761 24.4706 68.9857C23.261 69.4369 22.7234 69.6193 22.7234 70.6369C22.7234 71.1649 22.9058 71.4625 23.213 71.3857C23.2322 71.3761 23.2418 71.3857 23.2226 71.4049C23.1074 71.5393 22.9826 71.5873 22.877 71.5873C22.6274 71.5873 22.5794 71.4529 22.445 71.4529C22.3106 71.4529 21.8594 71.7217 21.8594 71.9425C21.8594 72.0289 21.917 72.1441 22.0706 72.2401C22.0802 72.2497 22.0706 72.2593 22.0706 72.2593C21.9362 72.2593 21.581 72.2881 21.5042 71.9521ZM24.6818 62.1121C24.3074 62.0929 24.0578 62.1697 24.077 62.2945C24.2594 62.4865 24.4994 62.4673 24.6818 62.1121ZM23.2898 63.0433C23.5586 62.9761 23.8466 63.0049 23.885 63.0145C23.9234 63.0241 23.9234 63.0913 23.8754 63.1009C23.3186 63.1681 23.2898 63.4273 22.9346 63.4273C22.7042 63.4273 22.445 63.1873 22.541 62.8417C22.5506 62.7937 22.589 62.7937 22.5986 62.8417C22.637 62.9953 22.8578 63.1585 23.2898 63.0433ZM16.061 75.3889C16.4258 75.8593 16.781 75.4177 17.2706 75.4177C17.5106 75.4177 17.7986 75.4945 17.8466 75.9745C17.8466 76.0033 17.8658 76.0033 17.8946 75.9745C18.4226 75.2545 17.8178 74.8513 17.4722 74.7937C17.549 74.7265 18.0578 74.4097 18.3938 74.8801C18.413 74.9089 18.4514 74.8993 18.4514 74.8609C18.4514 73.9489 17.7698 73.8817 17.2706 74.2753C17.1746 73.9201 17.4434 73.6897 17.789 73.6897C17.8274 73.6897 17.8466 73.6609 17.8274 73.6417C17.213 72.9889 16.7618 73.8145 16.6562 73.9393C16.4162 74.2657 15.5426 73.6513 15.1874 73.2865C15.1874 73.2865 15.9554 72.4801 15.9554 71.7409C15.9554 71.6929 15.9458 71.6353 15.9458 71.6065C15.9458 71.5873 15.9554 71.5777 15.9746 71.5873C16.0514 71.6353 16.157 71.6641 16.2626 71.6641C16.4354 71.6641 16.7714 71.6065 16.7714 70.9825C16.7714 70.9345 16.7522 70.9345 16.733 70.9633C16.637 71.0977 16.541 71.1265 16.4642 71.1265C15.8402 71.1265 14.5442 69.0529 13.0082 69.0529C12.605 69.0529 11.8466 69.3409 11.4722 69.7537C11.6546 69.8593 11.693 70.0897 11.6738 70.2529C11.645 70.5121 11.4338 70.6465 11.2226 70.7041C11.1842 70.7137 11.1842 70.7425 11.2226 70.7617C12.0002 71.0593 13.4018 71.5873 13.7282 71.8657C14.1026 72.1921 14.0354 72.8065 13.8146 73.6609C13.6034 74.4769 13.1522 74.3713 12.9794 74.3425C12.9506 74.3425 12.9506 74.3521 12.9602 74.3713C13.1618 74.6209 13.4018 74.7073 13.613 74.7073C14.0162 74.7073 14.1698 74.4577 14.3714 74.4577C14.717 74.4577 15.4562 74.9569 15.4562 75.3409C15.4562 75.5521 15.293 75.7537 15.0722 75.8881C15.0626 75.8977 15.0626 75.9169 15.0818 75.9169C15.245 75.9457 15.9266 76.0033 16.061 75.3889ZM32.9858 75.9169C33.005 75.9169 33.0146 75.8977 32.9954 75.8881C32.7842 75.7441 32.6114 75.5521 32.6114 75.3409C32.6114 74.9569 33.341 74.4577 33.6962 74.4577C33.9074 74.4577 34.0514 74.7073 34.4546 74.7073C34.6658 74.7073 34.9058 74.6209 35.1074 74.3713C35.1266 74.3521 35.117 74.3329 35.0882 74.3425C34.925 74.3713 34.4642 74.4769 34.253 73.6609C34.0322 72.8065 33.9554 72.1921 34.3394 71.8657C34.6562 71.5873 36.0674 71.0593 36.845 70.7617C36.8834 70.7425 36.8834 70.7137 36.845 70.7041C36.6338 70.6465 36.4226 70.5121 36.3938 70.2529C36.3746 70.0897 36.413 69.8689 36.5954 69.7537C36.2114 69.3409 35.453 69.0529 35.0498 69.0529C33.5138 69.0529 32.2178 71.1265 31.5938 71.1265C31.517 71.1265 31.4114 71.0977 31.325 70.9633C31.3058 70.9345 31.2866 70.9345 31.2866 70.9825C31.2866 71.6065 31.6226 71.6641 31.7954 71.6641C31.8914 71.6641 32.0066 71.6353 32.0834 71.5873C32.1026 71.5777 32.1122 71.5873 32.1122 71.6065C32.1122 71.6353 32.1026 71.6929 32.1026 71.7409C32.1026 72.4801 32.8706 73.2865 32.8706 73.2865C32.525 73.6513 31.6514 74.2561 31.4018 73.9393C31.2962 73.8049 30.845 72.9889 30.2306 73.6417C30.2114 73.6705 30.221 73.6897 30.269 73.6897C30.6146 73.6897 30.8834 73.9201 30.7874 74.2753C30.2882 73.8817 29.6066 73.9489 29.6066 74.8609C29.6066 74.8993 29.645 74.9089 29.6642 74.8801C29.9906 74.4097 30.509 74.7265 30.5762 74.7937C30.2306 74.8417 29.6354 75.2545 30.1538 75.9745C30.173 76.0033 30.1922 76.0033 30.2018 75.9745C30.2594 75.5041 30.5474 75.4177 30.7778 75.4177C31.2578 75.4177 31.613 75.8593 31.9874 75.3889C32.141 76.0033 32.8226 75.9457 32.9858 75.9169ZM20.5922 63.9457C20.5442 64.0129 20.381 63.9457 20.3234 63.9169C20.3138 63.9073 20.3042 63.9169 20.3138 63.9265C20.3522 64.0129 20.5058 64.2721 20.7362 64.2721C20.8418 64.2721 20.9954 64.2145 21.0338 64.1377C21.0338 64.1377 21.9362 64.4353 22.3778 64.5505C22.205 64.7809 22.0994 65.0593 22.0706 65.3569C21.7154 65.1361 20.2754 64.3681 20.2754 64.3681L19.8338 64.9825C19.757 65.0785 19.4018 64.8193 19.4786 64.7233L19.8146 64.2529C19.6994 64.1377 19.4306 64.2049 19.3538 64.2337C19.3442 64.2337 19.3346 64.2337 19.3442 64.2145C19.3922 64.1185 19.5554 63.8401 19.9778 63.9649C19.9778 63.7057 19.5938 63.7921 19.4882 63.8209C19.4786 63.8209 19.469 63.8209 19.4786 63.8113C19.5842 63.6961 19.901 63.4465 20.2466 63.6577L20.4002 63.4465L20.093 63.1201L20.285 62.8513L20.5058 63.1393L22.1666 60.8641C22.205 60.8065 22.541 60.7105 22.6562 60.6817C22.6658 60.8065 22.685 61.1521 22.6466 61.2097L21.0146 63.5041L21.3602 63.6193L21.1682 63.8881L20.765 63.6961L20.5922 63.9457ZM26.4194 63.5713C26.4194 63.7825 26.5442 64.0897 26.8226 63.9937C26.8322 63.9841 26.8514 63.9937 26.8418 64.0033C26.8034 64.2337 26.381 64.4449 26.1986 64.1761C26.0258 64.5313 26.0738 64.8673 26.429 65.0593C26.4482 65.0689 26.4482 65.0977 26.429 65.1169C26.2082 65.2705 25.8722 65.2417 25.7186 64.9345C25.421 65.1553 25.4594 65.6353 25.6418 65.7985C25.6418 65.7985 24.8162 66.2881 24.0674 65.9425C23.5682 65.7025 23.165 65.3953 22.5218 65.4529C22.6082 64.5505 23.0594 64.3201 23.885 64.1857C24.5474 64.0801 24.6242 63.7729 24.5378 63.5425C24.317 63.4849 23.9042 63.6865 23.9042 63.6865C23.8274 63.5617 23.933 63.4369 23.933 63.4369C23.8946 63.3889 23.8754 63.2257 23.8754 63.2257C24.3362 63.2257 24.4226 63.1201 24.4226 63.1201C24.509 62.6401 24.0194 62.5921 23.645 62.8513C23.4722 62.6977 23.501 62.4961 23.501 62.4961C23.453 62.4673 23.4146 62.3905 23.4146 62.3521C23.4146 62.2369 23.9618 61.9297 24.1058 61.8913C24.1442 61.7281 24.3362 61.5073 24.9218 61.5649C24.989 61.4113 24.8738 60.8449 24.8066 60.7009C24.7874 60.6529 24.8162 60.6337 24.8642 60.6625C25.0658 60.7873 25.2674 61.2673 25.4114 61.2769C25.4114 61.2769 26.0642 60.9313 26.093 60.9505C26.1218 60.9697 26.2178 61.6993 26.2178 61.6993C26.3042 61.8049 26.813 61.6993 27.0338 61.7953C27.0914 61.8241 27.0914 61.8625 27.0338 61.8721C26.8706 61.9009 26.3426 62.1313 26.2562 62.2753C26.5634 62.7265 26.4194 63.3889 26.4194 63.5713Z" fill="white"/>
</svg>
